<svg viewBox="0 0 24 25" fill="currentColor" xmlns="http://www.w3.org/2000/svg">
  <path fill-rule="evenodd" clip-rule="evenodd" d="M6 17.3783V10.3783H4V17.3783C4 19.5874 5.79086 21.3783 8 21.3783H16C18.2091 21.3783 20 19.5874 20 17.3783V10.3783H18V17.3783C18 18.4829 17.1046 19.3783 16 19.3783H15V17.3783C15 15.7214 13.6569 14.3783 12 14.3783C10.3431 14.3783 9 15.7214 9 17.3783V19.3783H8C6.89543 19.3783 6 18.4829 6 17.3783ZM11 19.3783H13V17.3783C13 16.826 12.5523 16.3783 12 16.3783C11.4477 16.3783 11 16.826 11 17.3783V19.3783Z" />
  <path fill-rule="evenodd" clip-rule="evenodd" d="M15.0145 9.28417C15.5491 9.30021 16.0551 9.52976 16.4193 9.92153C16.543 10.0546 16.6856 10.1655 16.8476 10.2431C17.0027 10.3175 17.2104 10.3787 17.5 10.3787C17.8832 10.3787 18.2362 10.1961 18.5231 9.82722C18.8165 9.45006 19 8.91904 19 8.37865C19 6.5204 17.5417 5.37887 16.0005 5.37958C15.5865 5.37978 14.3126 5.37945 12.893 5.37908L12.8896 5.37908C10.8817 5.37856 8.58432 5.37796 8.00118 5.37865C6.45732 5.38048 5 6.52156 5 8.37865C5 8.91904 5.18351 9.45006 5.47685 9.82721C5.76376 10.1961 6.11681 10.3787 6.5 10.3787C6.78962 10.3787 6.9973 10.3175 7.15242 10.2431C7.3145 10.1654 7.45705 10.0546 7.58079 9.92146C7.94496 9.52968 8.45088 9.30011 8.98553 9.28402C9.52018 9.26794 10.039 9.46669 10.4261 9.83587C10.694 10.0914 11.158 10.3785 12.0001 10.3787C12.8422 10.3788 13.3061 10.0917 13.5739 9.83616C13.961 9.46693 14.4798 9.26813 15.0145 9.28417ZM15.0201 11.3521C15.556 11.8994 16.362 12.3787 17.5 12.3787C18.6142 12.3787 19.5119 11.8136 20.1019 11.0551C20.6834 10.3074 21 9.33851 21 8.37865C21 5.24631 18.4686 3.37844 15.9995 3.37959C15.5862 3.37978 14.3118 3.37945 12.8901 3.37908C10.8836 3.37856 8.58385 3.37796 7.99882 3.37865C5.53222 3.38157 3 5.24531 3 8.37865C3 9.33851 3.31663 10.3074 3.89815 11.0551C4.48809 11.8136 5.38576 12.3787 6.5 12.3787C7.63822 12.3787 8.44441 11.8992 8.98026 11.3517C9.00253 11.3289 9.02433 11.3061 9.04567 11.2831C9.06893 11.3053 9.09263 11.3273 9.11679 11.3492C9.74414 11.9175 10.6774 12.3785 11.9999 12.3787C13.3224 12.3788 14.2557 11.9179 14.8831 11.3496C14.9074 11.3276 14.9311 11.3055 14.9545 11.2833C14.9759 11.3063 14.9978 11.3292 15.0201 11.3521Z" />
</svg>
