<svg viewBox="0 0 24 25" fill="currentColor" xmlns="http://www.w3.org/2000/svg">
  <path fill-rule="evenodd" clip-rule="evenodd" d="M9 11.3783V15.3783H7V11.3783H9ZM5 9.3783H7H9H11V11.3783V15.3783V17.3783H9H7H5V15.3783V11.3783V9.3783ZM17 11.3783V15.3783H15V11.3783H17ZM13 9.3783H15H17H19V11.3783V15.3783V17.3783H17H15H13V15.3783V11.3783V9.3783Z" />
  <path fill-rule="evenodd" clip-rule="evenodd" d="M18 17.3783H6C5.44772 17.3783 5 17.826 5 18.3783C5 18.9306 5.44772 19.3783 6 19.3783H18C18.5523 19.3783 19 18.9306 19 18.3783C19 17.826 18.5523 17.3783 18 17.3783ZM6 15.3783C4.34315 15.3783 3 16.7214 3 18.3783C3 20.0352 4.34315 21.3783 6 21.3783H18C19.6569 21.3783 21 20.0352 21 18.3783C21 16.7214 19.6569 15.3783 18 15.3783H6Z" />
  <path fill-rule="evenodd" clip-rule="evenodd" d="M5.92866 9.3783H18.0713C18.5842 9.3783 19 8.96253 19 8.44964C19 8.05602 18.7518 7.70516 18.3807 7.57403L12.3331 5.43735C12.1176 5.36119 11.8824 5.36119 11.6669 5.43735L5.61929 7.57403C5.24815 7.70516 5 8.05602 5 8.44964C5 8.96253 5.41577 9.3783 5.92866 9.3783ZM4.95303 5.68827C3.78259 6.1018 3 7.2083 3 8.44964C3 10.0671 4.3112 11.3783 5.92866 11.3783H18.0713C19.6888 11.3783 21 10.0671 21 8.44964C21 7.2083 20.2174 6.1018 19.047 5.68827L12.9994 3.55159C12.3527 3.32311 11.6473 3.32311 11.0006 3.55159L4.95303 5.68827Z" />
</svg>
