<svg width="12" height="12" viewBox="0 0 12 12" fill="currentColor" xmlns="http://www.w3.org/2000/svg">
  <path fill-rule="evenodd" clip-rule="evenodd" d="M2 1.5C2.27614 1.5 2.5 1.72386 2.5 2V8.5C2.5 9.05228 2.94772 9.5 3.5 9.5H10C10.2761 9.5 10.5 9.72386 10.5 10C10.5 10.2761 10.2761 10.5 10 10.5H3.5C2.39543 10.5 1.5 9.60457 1.5 8.5V2C1.5 1.72386 1.72386 1.5 2 1.5Z" />
  <path fill-rule="evenodd" clip-rule="evenodd" d="M10.1581 1.52567C10.4201 1.613 10.5617 1.89616 10.4744 2.15813L9.48602 5.12313C9.1334 6.18098 7.79081 6.49792 7.00234 5.70944L6.29058 4.99769C6.02776 4.73486 5.58023 4.84051 5.46269 5.19313L4.47436 8.15813C4.38703 8.4201 4.10387 8.56168 3.8419 8.47435C3.57993 8.38703 3.43835 8.10387 3.52567 7.8419L4.514 4.8769C4.86662 3.81905 6.20921 3.50211 6.99769 4.29058L7.70944 5.00234C7.97227 5.26516 8.4198 5.15951 8.53734 4.8069L9.52567 1.8419C9.613 1.57993 9.89615 1.43835 10.1581 1.52567Z" />
</svg>
