<svg viewBox="0 0 18 19" fill="currentColor" xmlns="http://www.w3.org/2000/svg">
  <path fill-rule="evenodd" clip-rule="evenodd" d="M8.25 15.3783C8.25 14.9641 8.58579 14.6283 9 14.6283L11.4 14.6283C12.0424 14.6283 12.4792 14.6277 12.8167 14.6001C13.1455 14.5733 13.3137 14.5246 13.431 14.4648C13.7132 14.321 13.9427 14.0915 14.0865 13.8093C14.1463 13.692 14.195 13.5238 14.2218 13.195C14.2494 12.8575 14.25 12.4207 14.25 11.7783L14.25 6.9783C14.25 6.33586 14.2494 5.89914 14.2218 5.56157C14.195 5.23276 14.1463 5.06461 14.0865 4.94731C13.9427 4.66507 13.7132 4.4356 13.431 4.29179C13.3137 4.23202 13.1455 4.18332 12.8167 4.15646C12.4792 4.12888 12.0424 4.1283 11.4 4.1283L9 4.1283C8.58579 4.1283 8.25 3.79251 8.25 3.3783C8.25 2.96408 8.58579 2.6283 9 2.6283L11.431 2.6283C12.0347 2.62829 12.533 2.62828 12.9389 2.66144C13.3604 2.69588 13.748 2.76981 14.112 2.95528C14.6765 3.2429 15.1354 3.70184 15.423 4.26632C15.6085 4.63033 15.6824 5.01785 15.7169 5.43943C15.75 5.84533 15.75 6.3436 15.75 6.94734V11.8093C15.75 12.413 15.75 12.9113 15.7169 13.3172C15.6824 13.7387 15.6085 14.1263 15.423 14.4903C15.1354 15.0548 14.6765 15.5137 14.112 15.8013C13.748 15.9868 13.3604 16.0607 12.9389 16.0952C12.533 16.1283 12.0347 16.1283 11.431 16.1283H9C8.58579 16.1283 8.25 15.7925 8.25 15.3783Z" />
  <path d="M5.78033 11.098C6.07322 11.3909 6.07322 11.8657 5.78033 12.1586C5.48744 12.4515 5.01256 12.4515 4.71967 12.1586L2.46967 9.90863C2.17678 9.61573 2.17678 9.14086 2.46967 8.84797L4.71967 6.59797C5.01256 6.30507 5.48744 6.30507 5.78033 6.59797C6.07322 6.89086 6.07322 7.36573 5.78033 7.65863L4.81066 8.6283H11.25C11.6642 8.6283 12 8.96408 12 9.3783C12 9.79251 11.6642 10.1283 11.25 10.1283H4.81066L5.78033 11.098Z" />
</svg>
