<svg viewBox="0 0 32 32" fill="currentColor" xmlns="http://www.w3.org/2000/svg">
  <path fill-rule="evenodd" clip-rule="evenodd" d="M10.3449 5.33334H21.655C22.7283 5.33333 23.6141 5.33331 24.3357 5.39227C25.0852 5.4535 25.7741 5.58492 26.4212 5.91464C27.4248 6.42597 28.2407 7.24186 28.752 8.2454C29.0817 8.89251 29.2131 9.58145 29.2744 10.3309C29.3333 11.0525 29.3333 11.9383 29.3333 13.0116V18.9884C29.3333 20.0617 29.3333 20.9475 29.2744 21.6691C29.2131 22.4186 29.0817 23.1075 28.752 23.7546C28.2407 24.7582 27.4248 25.5741 26.4212 26.0854C25.7741 26.4151 25.0852 26.5465 24.3357 26.6078C23.6141 26.6667 22.7283 26.6667 21.655 26.6667H10.3449C9.27162 26.6667 8.38579 26.6667 7.66419 26.6078C6.91473 26.5465 6.22579 26.4151 5.57868 26.0854C4.57515 25.5741 3.75925 24.7582 3.24793 23.7546C2.9182 23.1075 2.78679 22.4186 2.72555 21.6691C2.6666 20.9475 2.66661 20.0617 2.66663 18.9884V13.0116C2.66661 11.9383 2.6666 11.0525 2.72555 10.3309C2.78679 9.58145 2.9182 8.89251 3.24793 8.2454C3.75925 7.24186 4.57515 6.42597 5.57868 5.91464C6.22579 5.58492 6.91473 5.4535 7.66419 5.39227C8.38579 5.33331 9.2716 5.33333 10.3449 5.33334ZM7.88135 8.05008C7.29679 8.09784 6.99785 8.18441 6.78932 8.29066C6.28755 8.54632 5.87961 8.95427 5.62394 9.45604C5.51769 9.66457 5.43112 9.96351 5.38336 10.5481C5.33433 11.1482 5.33329 11.9246 5.33329 13.0667V18.9333C5.33329 20.0755 5.33433 20.8518 5.38336 21.452C5.43112 22.0365 5.51769 22.3355 5.62394 22.544C5.87961 23.0458 6.28755 23.4537 6.78932 23.7094C6.99785 23.8156 7.29679 23.9022 7.88135 23.9499C8.48146 23.999 9.25786 24 10.4 24H21.6C22.7421 24 23.5185 23.999 24.1186 23.9499C24.7031 23.9022 25.0021 23.8156 25.2106 23.7094C25.7124 23.4537 26.1203 23.0458 26.376 22.544C26.4822 22.3355 26.5688 22.0365 26.6166 21.452C26.6656 20.8518 26.6666 20.0755 26.6666 18.9333V13.0667C26.6666 11.9246 26.6656 11.1482 26.6166 10.5481C26.5688 9.96351 26.4822 9.66457 26.376 9.45604C26.1203 8.95427 25.7124 8.54632 25.2106 8.29066C25.0021 8.18441 24.7031 8.09784 24.1186 8.05008C23.5185 8.00105 22.7421 8.00001 21.6 8.00001H10.4C9.25786 8.00001 8.48146 8.00105 7.88135 8.05008Z" />
  <path fill-rule="evenodd" clip-rule="evenodd" d="M8.23386 11.2457C8.65042 10.6385 9.48037 10.4839 10.0876 10.9005L15.2458 14.439C15.7003 14.7508 16.2998 14.7508 16.7543 14.439L21.9124 10.9005C22.5197 10.4839 23.3496 10.6385 23.7662 11.2457C24.1827 11.853 24.0282 12.6829 23.4209 13.0995L18.2628 16.638C16.8993 17.5734 15.1008 17.5734 13.7373 16.638L8.5791 13.0995C7.97187 12.6829 7.8173 11.853 8.23386 11.2457Z" />
</svg>
