<svg viewBox="0 0 12 12" fill="currentColor" xmlns="http://www.w3.org/2000/svg">
  <path fill-rule="evenodd" clip-rule="evenodd" d="M6.21581 2.05779C6.07903 1.99467 5.92105 1.99467 5.78427 2.05779L2.79593 3.43687C2.6344 3.51141 2.5472 3.64498 2.53807 3.77209C2.44856 5.01871 2.71128 6.61992 3.32907 7.89322C3.95192 9.17697 4.85685 9.98955 6.00004 9.98955C7.18169 9.98955 8.1103 9.11941 8.73231 7.7632C9.34492 6.42746 9.57745 4.77362 9.44142 3.5464L6.21581 2.05779ZM5.35273 1.14202C5.76306 0.952658 6.23703 0.95266 6.64735 1.14202L9.88063 2.63417C10.1826 2.77351 10.4132 3.05893 10.4538 3.41305C10.6152 4.82297 10.3545 6.67102 9.66208 8.18081C8.97576 9.67726 7.78009 11 6.00004 11C4.2791 11 3.10303 9.76183 2.40861 8.33058C1.70913 6.88889 1.41831 5.11085 1.51958 3.70047C1.5584 3.15987 1.91289 2.72947 2.3644 2.5211L5.35273 1.14202Z" />
  <path fill-rule="evenodd" clip-rule="evenodd" d="M7.85355 4.64645C8.04882 4.84171 8.04882 5.15829 7.85355 5.35355L5.85355 7.35355C5.65829 7.54882 5.34171 7.54882 5.14645 7.35355L4.14645 6.35355C3.95118 6.15829 3.95118 5.84171 4.14645 5.64645C4.34171 5.45118 4.65829 5.45118 4.85355 5.64645L5.5 6.29289L7.14645 4.64645C7.34171 4.45118 7.65829 4.45118 7.85355 4.64645Z" />
</svg>
