<svg viewBox="0 0 24 28" fill="currentColor" xmlns="http://www.w3.org/2000/svg">
  <path fill-rule="evenodd" clip-rule="evenodd" d="M8 10.3783C7.44772 10.3783 7 10.826 7 11.3783C7 11.9306 7.44772 12.3783 8 12.3783H12C12.5523 12.3783 13 11.9306 13 11.3783C13 10.826 12.5523 10.3783 12 10.3783H8ZM9 15.3783C9 14.826 9.44772 14.3783 10 14.3783H14C14.5523 14.3783 15 14.826 15 15.3783C15 15.9306 14.5523 16.3783 14 16.3783H10C9.44772 16.3783 9 15.9306 9 15.3783ZM11 19.3783C11 18.826 11.4477 18.3783 12 18.3783H16C16.5523 18.3783 17 18.826 17 19.3783C17 19.9306 16.5523 20.3783 16 20.3783H12C11.4477 20.3783 11 19.9306 11 19.3783Z" />
  <path fill-rule="evenodd" clip-rule="evenodd" d="M10.3572 6.3783H13.6428C14.7266 6.37829 15.6007 6.37828 16.3086 6.43611C17.0375 6.49566 17.6777 6.62148 18.27 6.92326C19.2108 7.40263 19.9757 8.16753 20.455 9.10834C20.7568 9.70064 20.8826 10.3408 20.9422 11.0697C21 11.7775 21 12.6517 21 13.7355V17.0211C21 18.1049 21 18.979 20.9422 19.6869C20.8826 20.4158 20.7568 21.056 20.455 21.6482C19.9757 22.5891 19.2108 23.354 18.27 23.8333C17.6777 24.1351 17.0375 24.2609 16.3086 24.3205C15.6008 24.3783 14.7266 24.3783 13.6428 24.3783H10.3572C9.27339 24.3783 8.39925 24.3783 7.69138 24.3205C6.96253 24.2609 6.32234 24.1351 5.73005 23.8333C4.78924 23.354 4.02433 22.5891 3.54497 21.6482C3.24318 21.056 3.11737 20.4158 3.05782 19.6869C2.99998 18.979 2.99999 18.1049 3 17.0211V13.7355C2.99999 12.6517 2.99998 11.7776 3.05782 11.0697C3.11737 10.3408 3.24318 9.70064 3.54497 9.10834C4.02433 8.16753 4.78924 7.40263 5.73005 6.92326C6.32234 6.62148 6.96253 6.49566 7.69138 6.43611C8.39926 6.37828 9.27341 6.37829 10.3572 6.3783ZM7.85424 8.42947C7.24907 8.47892 6.90138 8.57109 6.63803 8.70528C6.07354 8.9929 5.6146 9.45184 5.32698 10.0163C5.19279 10.2797 5.10062 10.6274 5.05118 11.2325C5.00078 11.8494 5 12.6417 5 13.7783V16.9783C5 18.1149 5.00078 18.9072 5.05118 19.5241C5.10062 20.1292 5.19279 20.4769 5.32698 20.7403C5.6146 21.3048 6.07354 21.7637 6.63803 22.0513C6.90138 22.1855 7.24907 22.2777 7.85424 22.3271C8.47108 22.3775 9.26339 22.3783 10.4 22.3783H13.6C14.7366 22.3783 15.5289 22.3775 16.1458 22.3271C16.7509 22.2777 17.0986 22.1855 17.362 22.0513C17.9265 21.7637 18.3854 21.3048 18.673 20.7403C18.8072 20.4769 18.8994 20.1292 18.9488 19.5241C18.9992 18.9072 19 18.1149 19 16.9783V13.7783C19 12.6417 18.9992 11.8494 18.9488 11.2325C18.8994 10.6274 18.8072 10.2797 18.673 10.0163C18.3854 9.45184 17.9265 8.9929 17.362 8.70528C17.0986 8.57109 16.7509 8.47892 16.1458 8.42947C15.5289 8.37907 14.7366 8.3783 13.6 8.3783H10.4C9.26339 8.3783 8.47108 8.37907 7.85424 8.42947Z" />
</svg>
